HIERARCHY
ROOT joint_Root
{
	OFFSET 0.0 0.0 0.0
	CHANNELS 6 Xposition Yposition Zposition Zrotation Xrotation Yrotation 
	JOINT Hips
	{
		OFFSET 4.5925 91.4895 -427.239
		CHANNELS 6 Xposition Yposition Zposition Zrotation Xrotation Yrotation 
		JOINT Spine
		{
			OFFSET 15.7357 0.0 0.0
			CHANNELS 6 Xposition Yposition Zposition Zrotation Xrotation Yrotation 
			JOINT Chest
			{
				OFFSET 8.98455 -0.406207 0.0
				CHANNELS 6 Xposition Yposition Zposition Zrotation Xrotation Yrotation 
				JOINT Neck
				{
					OFFSET 16.3773 0.0 0.0
					CHANNELS 6 Xposition Yposition Zposition Zrotation Xrotation Yrotation 
					JOINT Head
					{
						OFFSET 6.45672 0.0 0.0
						CHANNELS 6 Xposition Yposition Zposition Zrotation Xrotation Yrotation 
						End Site
						{
							OFFSET 0.0 0.0 0.0
						}
					}
				}
				JOINT Shoulder_L
				{
					OFFSET 12.9942 -0.242716 4.98039
					CHANNELS 6 Xposition Yposition Zposition Zrotation Xrotation Yrotation 
					JOINT UpperArm_L
					{
						OFFSET 5.34809 0.0 0.0
						CHANNELS 6 Xposition Yposition Zposition Zrotation Xrotation Yrotation 
						JOINT LowerArm_L
						{
							OFFSET 24.3286 1.87007e-05 0.0
							CHANNELS 6 Xposition Yposition Zposition Zrotation Xrotation Yrotation 
							JOINT Hand_L
							{
								OFFSET 22.2916 0.0 0.0
								CHANNELS 6 Xposition Yposition Zposition Zrotation Xrotation Yrotation 
								End Site
								{
									OFFSET 0.0 0.0 0.0
								}
							}
						}
					}
				}
				JOINT Shoulder_R
				{
					OFFSET 12.9945 -0.242716 -4.98039
					CHANNELS 6 Xposition Yposition Zposition Zrotation Xrotation Yrotation 
					JOINT UpperArm_R
					{
						OFFSET -5.34813 0.0 0.0
						CHANNELS 6 Xposition Yposition Zposition Zrotation Xrotation Yrotation 
						JOINT LowerArm_R
						{
							OFFSET -24.3289 0.000322201 0.0
							CHANNELS 6 Xposition Yposition Zposition Zrotation Xrotation Yrotation 
							JOINT Hand_R
							{
								OFFSET -22.2915 -0.000108084 0.0
								CHANNELS 6 Xposition Yposition Zposition Zrotation Xrotation Yrotation 
								End Site
								{
									OFFSET 0.0 0.0 0.0
								}
							}
						}
					}
				}
			}
		}
		JOINT UpperLeg_L
		{
			OFFSET -2.19248 -6.46944 0.0
			CHANNELS 6 Xposition Yposition Zposition Zrotation Xrotation Yrotation 
			JOINT LowerLeg_L
			{
				OFFSET 39.0811 0.0 -1.23785e-05
				CHANNELS 6 Xposition Yposition Zposition Zrotation Xrotation Yrotation 
				JOINT Foot_L
				{
					OFFSET 40.9854 0.0 -1.26872e-05
					CHANNELS 6 Xposition Yposition Zposition Zrotation Xrotation Yrotation 
					JOINT Toes_L
					{
						OFFSET 11.7543 0.0 0.0
						CHANNELS 6 Xposition Yposition Zposition Zrotation Xrotation Yrotation 
						End Site
						{
							OFFSET 0.0 0.0 0.0
						}
					}
				}
			}
		}
		JOINT UpperLeg_R
		{
			OFFSET -2.19251 6.46944 0.0
			CHANNELS 6 Xposition Yposition Zposition Zrotation Xrotation Yrotation 
			JOINT LowerLeg_R
			{
				OFFSET -39.0811 -0.00228153 -0.0401928
				CHANNELS 6 Xposition Yposition Zposition Zrotation Xrotation Yrotation 
				JOINT Foot_R
				{
					OFFSET -40.9854 0.0 0.0
					CHANNELS 6 Xposition Yposition Zposition Zrotation Xrotation Yrotation 
					JOINT Toes_R
					{
						OFFSET -11.7543 0.0 0.0
						CHANNELS 6 Xposition Yposition Zposition Zrotation Xrotation Yrotation 
						End Site
						{
							OFFSET 0.0 0.0 0.0
						}
					}
				}
			}
		}
	}
}
MOTION
Frames:	4
Frame Time:	0.0333333
0.000000 0.000000 0.000000 0.000000 0.000000 -0.000000 4.017680 86.076700 -1.414550 89.121300 -18.280300 7.977730 15.735700 0.000005 -0.000001 93.744800 81.424300 -93.605700 8.984550 -0.406207 -0.000000 9.348640 1.115850 0.186745 16.377300 -0.000001 -0.000001 1.493200 -5.153870 4.211560 6.456720 -0.000001 -0.000000 2.741160 -6.547450 7.298940 12.994200 -0.242716 4.980390 -91.750400 5.334350 -71.803600 5.348090 -0.000007 -0.000001 -69.354400 22.022300 -2.849420 24.328600 0.000019 0.000005 8.878250 18.476100 -26.237800 22.291600 -0.000001 0.000005 9.759150 5.231430 1.885460 12.994500 -0.242716 -4.980390 88.681600 9.370190 -81.954100 -5.348130 -0.000001 -0.000004 -56.849400 35.672100 -25.577000 -24.328900 0.000322 -0.000009 1.044210 2.674170 -21.359900 -22.291500 -0.000108 -0.000004 18.091800 5.400360 -2.953320 -2.192480 -6.469440 -0.000000 -175.914000 -23.637900 -10.692000 39.081100 -0.000007 -0.000012 -0.395934 0.329484 50.234700 40.985400 -0.000006 -0.000013 1.288340 -0.683697 -81.080000 11.754300 -0.000000 0.000003 -0.000288 -0.002515 -16.671400 -2.192510 6.469440 -0.000001 175.622000 2.962470 164.402000 -39.081100 -0.002282 -0.040193 0.013924 -0.008653 50.984300 -40.985400 0.000008 0.000006 5.280560 11.508500 -77.587200 -11.754300 -0.000006 -0.000006 -0.654848 -0.803262 -17.314200
0.000000 0.000000 0.000000 0.000000 0.000000 -0.000000 4.774990 87.437900 -0.926915 89.270700 -23.033400 7.574660 15.735700 0.000005 -0.000001 90.676400 82.075100 -90.042300 8.984550 -0.406207 -0.000000 8.081930 0.188047 1.253820 16.377300 -0.000001 -0.000001 3.939980 -3.075770 3.010720 6.456720 -0.000001 -0.000000 3.492820 -3.516650 3.636100 12.994200 -0.242716 4.980390 -91.519100 4.321390 -70.609200 5.348090 -0.000007 -0.000001 -61.793900 17.146900 -9.280810 24.328600 0.000019 0.000005 13.584900 23.678100 -31.035200 22.291600 -0.000001 0.000005 9.930650 5.255870 1.270750 12.994500 -0.242716 -4.980390 88.592100 8.486670 -80.544700 -5.348130 -0.000001 -0.000004 -61.150100 33.786400 -23.258700 -24.328900 0.000322 -0.000009 0.799197 1.829900 -23.643600 -22.291500 -0.000108 -0.000004 18.502600 5.370440 -2.000220 -2.192480 -6.469440 -0.000000 -177.049000 -24.243500 -8.125510 39.081100 -0.000007 -0.000012 -0.386018 0.386705 44.949900 40.985400 -0.000006 -0.000013 0.112038 -4.500260 -79.136300 11.754300 -0.000000 0.000003 -0.000279 -0.002449 -16.669000 -2.192510 6.469440 -0.000001 174.802000 2.874580 165.653000 -39.081100 -0.002282 -0.040193 -0.003033 0.006035 46.201600 -40.985400 0.000008 0.000006 5.143970 16.019700 -74.657700 -11.754300 -0.000006 -0.000006 -0.430703 -0.532323 -17.745800
0.000000 0.000000 0.000000 0.000000 0.000000 -0.000000 5.217260 88.838100 -0.636219 89.206300 -25.866800 6.868160 15.735700 0.000005 -0.000001 88.285400 82.869500 -87.151200 8.984550 -0.406207 -0.000000 6.494100 -0.437978 2.290900 16.377300 -0.000001 -0.000001 7.010340 -1.708450 1.857880 6.456720 -0.000001 -0.000000 4.246800 -1.254470 0.982257 12.994200 -0.242716 4.980390 -91.081900 3.002700 -70.175100 5.348090 -0.000007 -0.000001 -53.550400 4.479410 -19.036700 24.328600 0.000019 0.000005 13.843800 19.488600 -36.454700 22.291600 -0.000001 0.000005 15.124700 5.251640 1.395760 12.994500 -0.242716 -4.980390 88.504500 7.779180 -79.082600 -5.348130 -0.000001 -0.000004 -63.674500 33.007700 -18.453100 -24.328900 0.000322 -0.000009 -1.155310 -2.089510 -28.885400 -22.291500 -0.000108 -0.000004 16.476300 5.400690 -2.969710 -2.192480 -6.469440 -0.000000 -177.831000 -24.451400 -5.809770 39.081100 -0.000007 -0.000012 -0.302155 0.371515 39.122200 40.985400 -0.000006 -0.000013 -0.330896 -6.822160 -76.613900 11.754300 -0.000000 0.000003 -0.000248 -0.002219 -16.660700 -2.192510 6.469440 -0.000001 174.285000 4.670810 167.415000 -39.081100 -0.002282 -0.040193 -0.010943 0.016639 40.519400 -40.985400 0.000008 0.000006 4.544100 20.383000 -71.465800 -11.754300 -0.000006 -0.000006 -0.002732 -0.037535 -18.099500
0.000000 0.000000 0.000000 0.000000 0.000000 -0.000000 5.352540 89.789400 -0.537965 88.659000 -26.755700 6.108480 15.735700 0.000005 -0.000001 85.128700 83.404300 -83.698800 8.984550 -0.406207 -0.000000 5.394590 -1.147220 2.910790 16.377300 -0.000001 -0.000001 8.977220 -1.056700 1.666400 6.456720 -0.000001 -0.000000 5.324070 -0.004456 0.291484 12.994200 -0.242716 4.980390 -90.446000 1.304780 -71.133800 5.348090 -0.000007 -0.000001 -46.596500 -11.112700 -31.424300 24.328600 0.000019 0.000005 19.736400 20.252100 -46.015700 22.291600 -0.000001 0.000005 19.734900 5.306350 -0.096391 12.994500 -0.242716 -4.980390 88.399800 7.749180 -78.295100 -5.348130 -0.000001 -0.000004 -63.633100 33.589900 -13.773800 -24.328900 0.000322 -0.000009 -3.503580 -5.118460 -34.444200 -22.291500 -0.000108 -0.000004 14.532700 5.448150 -4.576580 -2.192480 -6.469440 -0.000000 -177.563000 -24.909000 -4.209410 39.081100 -0.000007 -0.000012 -0.248892 0.355306 35.011700 40.985400 -0.000006 -0.000013 -0.125229 -6.910920 -74.655200 11.754300 -0.000000 0.000003 -0.000193 -0.001799 -16.645500 -2.192510 6.469440 -0.000001 174.379000 7.011910 169.315000 -39.081100 -0.002282 -0.040193 -0.018120 0.029837 35.661300 -40.985400 0.000008 0.000006 3.548820 23.468800 -69.246800 -11.754300 -0.000006 -0.000006 -0.003796 -0.049302 -18.578500
